<!--?xml version="1.0" encoding="utf-8"?-->
<!-- Generator: Adobe Illustrator 18.1.1, SVG Export Plug-In . SVG Version: 6.00 Build 0)  -->

<svg version="1.1" id="_x32_" xmlns="http://www.w3.org/2000/svg" xmlns:xlink="http://www.w3.org/1999/xlink" x="0px" y="0px" viewBox="0 0 512 512" style="width: 64px; height: 64px; opacity: 1;" xml:space="preserve">
<style type="text/css">
	.st0{fill:#4B4B4B;}
</style>
<g>
	<path class="st0" d="M207.104,79.92c-68.129,0-104.809,32.14-111.29,38.607c-3.408,3.413-10.218,7.956-10.218,7.956
		c0,7.946,12.489,11.348,18.169,18.163c5.674,6.815,43.16,40.88,119.236,40.88c76.09,0,105.611-32.934,105.611-54.509
		C328.612,109.452,275.234,79.92,207.104,79.92z" style="fill: rgb(146, 64, 64);"></path>
	<path class="st0" d="M415.968,144.57c-4.146,0-8.559,0.724-13.064,2.223c-20.464,6.825-34.5,31.251-38.39,65.026
		c0.169,14.393,1.571,35.95,3.266,59.159c22.635-6.747,49.782-42.88,67.018-76.336C450.975,163.245,436.954,144.56,415.968,144.57z" style="fill: rgb(146, 64, 64);"></path>
	<path class="st0" d="M507.549,134.902c-12.915-35.639-46.148-57.94-85.443-57.834c-12.425,0-25.084,2.272-37.79,6.467
		c-4.084-6.777-8.724-13.079-14.341-18.502C334.2,30.514,278.806,12.776,206.07,10.988h0.039c-1.353-0.038-2.706-0.048-4.031-0.048
		c-26.5,0.01-55.369,6.1-81.411,14.954C94.63,34.788,71.508,46.349,56.389,58.006c-2.344,1.875-7.399,4.021-13.102,6.235
		c-6.505,2.61-17.081,6.688-26.307,14.645C7.72,86.773-0.086,99.253,0.001,116.527c0,1.992,0.091,4.04,0.295,6.167
		c1.246,12.383,6.911,23.18,12.846,34.983c7.414,14.462,14.978,30.121,14.876,43.383c0,1.402-0.091,2.813-0.242,4.176
		c-8.207,67.82-12.992,108.593-15.413,154.645c-0.102,1.914-0.154,3.828-0.154,5.722c-0.025,28.236,11.102,54.848,31.894,76.703
		c36.554,38.415,98.202,58.714,173.374,58.754c84.702,0.067,131.371-28.555,155.244-53.166c21.179-21.75,33.03-48.796,33.03-76.404
		l-0.038-2.619c-0.102-4.225-0.334-9.116-0.614-14.713c0.909-2.552,1.749-5.084,2.566-7.704
		c4.428-13.968,10.396-33.562,35.046-59.565c45.316-47.704,69.125-89.434,69.289-126.244
		C512,151.674,510.521,143.042,507.549,134.902z M419.99,265.274c-39.247,41.208-40.469,73.108-46.607,83.354
		c0.473,7.869,0.817,15.022,0.981,21.073c1.189,44.05-43.785,100-156.887,100c-113.088,0-176.868-49.782-173.803-108.178
		c2.382-45.239,7.144-85.723,15.22-152.528c4.577-37.835-25.762-72.295-27.38-89.279C29.126,94.71,56.979,97.165,75.568,82.81
		c25.554-19.739,82.837-40.512,126.51-40.512l3.239,0.039c48.815,1.189,107.143,10.72,142.856,45.229
		c10.396,10.063,15.983,23.016,18.729,36.752c1.991-0.087,4.465-0.744,7.525-2.58c17.381-9.271,33.495-13.312,47.68-13.312
		c27.67,0,48.009,15.36,55.984,37.226C488.578,174.371,465.562,217.416,419.99,265.274z" style="fill: rgb(146, 64, 64);"></path>
</g>
</svg>
